<svg width="67.075409" height="95.000000" viewBox="0 0 67.0754 95" fill="none" xmlns="http://www.w3.org/2000/svg" xmlns:xlink="http://www.w3.org/1999/xlink">
	<desc>
			Created with Pixso.
	</desc>
	<defs>
		<clipPath id="clip33_43">
			<rect width="67.075409" height="95.000000" fill="white" fill-opacity="0"/>
		</clipPath>
		<linearGradient id="paint_linear_33_45_0" x1="-9.288685" y1="34.748001" x2="76.364075" y2="62.578262" gradientUnits="userSpaceOnUse">
			<stop stop-color="#6CBCFC"/>
			<stop offset="0.171300" stop-color="#5EABFC"/>
			<stop offset="0.408400" stop-color="#509AFC"/>
			<stop offset="0.669800" stop-color="#4890FC"/>
			<stop offset="1.000000" stop-color="#458DFC"/>
		</linearGradient>
		<linearGradient id="paint_linear_33_48_0" x1="-5.224983" y1="-21.374935" x2="55.751457" y2="7.989712" gradientUnits="userSpaceOnUse">
			<stop stop-color="#CFE9FF"/>
			<stop offset="1.000000" stop-color="#A1D6FB"/>
		</linearGradient>
		<linearGradient id="paint_linear_33_49_0" x1="14.019142" y1="2.579521" x2="52.954926" y2="2.579521" gradientUnits="userSpaceOnUse">
			<stop stop-color="#B0F4FF"/>
			<stop offset="1.000000" stop-color="#69DCFC"/>
		</linearGradient>
		<linearGradient id="paint_linear_33_52_0" x1="14.134923" y1="29.207520" x2="23.915554" y2="41.833420" gradientUnits="userSpaceOnUse">
			<stop stop-color="#6CBCFC"/>
			<stop offset="1.000000" stop-color="#458DFC"/>
		</linearGradient>
		<linearGradient id="paint_linear_33_53_0" x1="13.074136" y1="30.029335" x2="22.854820" y2="42.655273" gradientUnits="userSpaceOnUse">
			<stop stop-color="#B0F4FF"/>
			<stop offset="0.099438" stop-color="#A1EFFE"/>
			<stop offset="0.299400" stop-color="#88E7FD"/>
			<stop offset="0.509500" stop-color="#77E1FD"/>
			<stop offset="0.734400" stop-color="#6CDDFC"/>
			<stop offset="1.000000" stop-color="#69DCFC"/>
		</linearGradient>
		<linearGradient id="paint_linear_33_54_0" x1="28.945557" y1="26.550982" x2="50.604836" y2="26.542524" gradientUnits="userSpaceOnUse">
			<stop stop-color="#6CBCFC"/>
			<stop offset="1.000000" stop-color="#458DFC"/>
		</linearGradient>
		<linearGradient id="paint_linear_33_55_0" x1="28.949528" y1="30.403694" x2="43.146278" y2="30.403694" gradientUnits="userSpaceOnUse">
			<stop stop-color="#6CBCFC"/>
			<stop offset="1.000000" stop-color="#458DFC"/>
		</linearGradient>
		<linearGradient id="paint_linear_33_56_0" x1="28.954239" y1="35.009762" x2="57.602287" y2="35.009762" gradientUnits="userSpaceOnUse">
			<stop stop-color="#6CBCFC"/>
			<stop offset="1.000000" stop-color="#458DFC"/>
		</linearGradient>
		<linearGradient id="paint_linear_33_57_0" x1="10.114834" y1="47.927151" x2="57.040829" y2="47.927151" gradientUnits="userSpaceOnUse">
			<stop stop-color="#6CBCFC"/>
			<stop offset="1.000000" stop-color="#458DFC"/>
		</linearGradient>
		<linearGradient id="paint_linear_33_58_0" x1="28.958853" y1="39.519115" x2="57.606888" y2="39.519115" gradientUnits="userSpaceOnUse">
			<stop stop-color="#6CBCFC"/>
			<stop offset="1.000000" stop-color="#458DFC"/>
		</linearGradient>
	</defs>
	<rect width="67.075409" height="95.000000" fill="#FFFFFF" fill-opacity="0"/>
	<g clip-path="url(#clip33_43)">
		<path d="M67.0754 90.4481C67.0754 92.9272 65.069 94.942 62.5899 94.942L4.58499 95.0083C2.61172 95.0083 0.93689 93.7397 0.331635 91.9738C0.174103 91.5177 0.091217 91.0369 0.091217 90.5311L0 6.88171C0 4.40259 2.00647 2.38782 4.4855 2.38782L57.7479 2.32983L62.4904 2.32153C64.9695 2.32153 66.9842 4.328 66.9842 6.80701L67.0754 90.4481Z" fill="url(#paint_linear_33_45_0)" fill-opacity="1.000000" fill-rule="nonzero"/>
		<path d="M61.0643 89.9672L6.10226 90.0253C4.7674 90.0253 3.68954 88.9474 3.68954 87.6125L3.60663 9.76685C3.60663 8.43201 4.68448 7.35413 6.01935 7.35413L60.9731 7.29614C62.308 7.29614 63.3858 8.37402 63.3858 9.70886L63.4688 87.5544C63.477 88.8811 62.3992 89.9672 61.0643 89.9672Z" fill="#FFFFFF" fill-opacity="1.000000" fill-rule="nonzero"/>
		<path d="M53.3453 13.7136L13.2576 13.7633C11.931 13.7633 10.8448 12.6854 10.8448 11.3589L10.8365 4.67627C10.8365 3.34961 11.9144 2.26355 13.241 2.26355L53.337 2.22205C54.6636 2.22205 55.7497 3.29993 55.7497 4.62646L55.758 11.3092C55.7497 12.6357 54.6719 13.7136 53.3453 13.7136ZM13.241 3.4906C12.5943 3.4906 12.0636 4.02124 12.0636 4.66797L12.0719 11.3506C12.0719 11.9973 12.6026 12.528 13.2493 12.528L53.3453 12.4865C53.992 12.4865 54.5226 11.9558 54.5226 11.3092L54.5143 4.62646C54.5143 3.97974 53.9837 3.4491 53.337 3.4491L13.241 3.4906Z" fill="url(#paint_linear_33_48_0)" fill-opacity="1.000000" fill-rule="nonzero"/>
		<path d="M52.2094 5.1156L14.7748 5.1571C14.3603 5.1571 14.0286 4.82544 14.0286 4.41089L14.0286 0.78772C14.0286 0.373047 14.3603 0.0415039 14.7748 0.0415039L52.2011 0C52.6157 0 52.9473 0.331665 52.9473 0.746216L52.9473 4.36938C52.9556 4.78394 52.624 5.1156 52.2094 5.1156Z" fill="url(#paint_linear_33_49_0)" fill-opacity="1.000000" fill-rule="nonzero"/>
		<path d="M15.1525 5.59509L52.5208 5.55371C52.9519 5.55371 53.3001 5.20544 53.3001 4.77429L53.3001 3L14.3649 3.0415L14.3649 4.8158C14.3649 5.24695 14.7214 5.59509 15.1525 5.59509Z" fill="#58D6F4" fill-opacity="1.000000" fill-rule="nonzero"/>
		<path d="M27.9412 81.2119L24.7076 61.6448L22.0876 70.1598L14.5924 70.1681C14.1364 70.1681 13.7716 69.8032 13.7716 69.3473C13.7716 68.8912 14.1364 68.5265 14.5924 68.5265L20.8854 68.5182L25.2051 54.4978L28.4387 74.1146L32.634 60.6416L34.8643 67.0258L39.8887 54.8461L44.7722 74.1644L46.6129 68.0206L52.0021 68.0123C52.4581 68.0123 52.8229 68.3772 52.8229 68.8333C52.8229 69.2892 52.4581 69.6541 52.0021 69.6541L47.8317 69.6624L44.6396 80.3164L39.5156 60.0529L34.7316 71.6356L32.7169 65.8733L27.9412 81.2119Z" fill="#58D6F4" fill-opacity="1.000000" fill-rule="nonzero"/>
		<path d="M22.3861 43.4871L11.848 43.4954C10.1483 43.4954 8.7554 42.1107 8.7554 40.411L8.73883 25.6777C8.73883 23.978 10.1234 22.5851 11.8232 22.5851L22.3612 22.5768C24.0609 22.5768 25.4538 23.9614 25.4538 25.6611L25.4704 40.3944C25.4704 42.0941 24.0858 43.4788 22.3861 43.4871ZM11.8148 23.4805C10.6043 23.4805 9.62598 24.4672 9.62598 25.6777L9.64258 40.411C9.64258 41.6216 10.6292 42.5999 11.8397 42.5999L22.3778 42.5917C23.5883 42.5917 24.5667 41.605 24.5667 40.3944L24.55 25.6611C24.55 24.4506 23.5634 23.4722 22.3529 23.4722L11.8148 23.4805Z" fill="url(#paint_linear_33_52_0)" fill-opacity="1.000000" fill-rule="nonzero"/>
		<path d="M17.1046 40.6598C22.0876 40.6515 23.6381 37.7745 23.6381 37.7745C23.4142 37.4926 23.1323 37.2439 22.7509 36.9951C21.4409 36.1411 20.3879 35.7764 19.9485 35.4115C19.5008 35.0549 19.252 34.5326 19.252 34.5326L18.9785 34.6985C18.9785 34.6985 18.8126 34.1263 18.9038 33.2559C18.9038 33.2559 19.2935 33.1564 19.5837 31.838C20.048 31.9292 20.5952 30.7518 20.3382 30.3208C20.1724 30.0388 19.9734 30.0637 19.8324 30.13C19.9734 29.5414 20.6118 26.283 17.0963 26.283C13.5809 26.283 14.2193 29.5414 14.3686 30.13C14.2276 30.0637 14.0286 30.0388 13.8628 30.3208C13.6058 30.7518 14.1613 31.9292 14.6256 31.838C14.9158 33.1564 15.3138 33.2476 15.3138 33.2476C15.4132 34.1099 15.2391 34.6902 15.2391 34.6902L14.9655 34.5244C14.9655 34.5244 14.7168 35.0385 14.2691 35.4032C13.8214 35.7681 12.7766 36.1411 11.4666 36.9951C11.0853 37.2439 10.7951 37.4926 10.5795 37.7745C10.5712 37.791 12.1299 40.6681 17.1046 40.6598Z" fill="url(#paint_linear_33_53_0)" fill-opacity="1.000000" fill-rule="nonzero"/>
		<path d="M49.921 27.278L29.6326 27.3029C29.2512 27.3029 28.9444 26.996 28.9444 26.6146L28.9444 26.4985C28.9444 26.1172 29.2512 25.8104 29.6326 25.8104L49.921 25.7855C50.3024 25.7855 50.6092 26.0923 50.6092 26.4736L50.6092 26.5897C50.6092 26.9712 50.2941 27.278 49.921 27.278Z" fill="url(#paint_linear_33_54_0)" fill-opacity="1.000000" fill-rule="nonzero"/>
		<path d="M42.459 31.1416L29.6326 31.1582C29.2512 31.1582 28.9444 30.8514 28.9444 30.47L28.9444 30.3539C28.9444 29.9725 29.2512 29.6658 29.6326 29.6658L42.459 29.6492C42.8404 29.6492 43.1472 29.9559 43.1472 30.3374L43.1472 30.4534C43.1472 30.8348 42.8404 31.1416 42.459 31.1416Z" fill="url(#paint_linear_33_55_0)" fill-opacity="1.000000" fill-rule="nonzero"/>
		<g opacity="0.600000">
			<path d="M56.9188 35.7349L29.6409 35.7679C29.2595 35.7679 28.9527 35.4612 28.9527 35.0798L28.9527 34.9637C28.9527 34.5824 29.2595 34.2756 29.6409 34.2756L56.9188 34.2424C57.3001 34.2424 57.6069 34.5492 57.6069 34.9305L57.6069 35.0466C57.5986 35.4281 57.2918 35.7349 56.9188 35.7349Z" fill="url(#paint_linear_33_56_0)" fill-opacity="1.000000" fill-rule="nonzero"/>
		</g>
		<g opacity="0.600000">
			<path d="M56.3301 48.6442L10.8283 48.6938C10.4386 48.6938 10.1152 48.3788 10.1152 47.9808L10.1152 47.9146C10.1152 47.5248 10.4303 47.2015 10.8283 47.2015L56.3301 47.1517C56.7198 47.1517 57.0432 47.4668 57.0432 47.8647L57.0432 47.9312C57.0432 48.3291 56.7198 48.6442 56.3301 48.6442Z" fill="url(#paint_linear_33_57_0)" fill-opacity="1.000000" fill-rule="nonzero"/>
		</g>
		<g opacity="0.600000">
			<path d="M56.9188 40.2452L29.6409 40.2783C29.2595 40.2783 28.9527 39.9716 28.9527 39.5902L28.9527 39.4741C28.9527 39.0928 29.2595 38.786 29.6409 38.786L56.9188 38.7528C57.3001 38.7528 57.6069 39.0596 57.6069 39.4409L57.6069 39.557C57.6069 39.9385 57.3001 40.2452 56.9188 40.2452Z" fill="url(#paint_linear_33_58_0)" fill-opacity="1.000000" fill-rule="nonzero"/>
		</g>
	</g>
</svg>
