<svg width="61.857380" height="85.000000" viewBox="0 0 61.8574 85" fill="none" xmlns="http://www.w3.org/2000/svg" xmlns:xlink="http://www.w3.org/1999/xlink">
	<desc>
			Created with Pixso.
	</desc>
	<defs>
		<clipPath id="clip27_36">
			<rect width="61.857380" height="85.000000" fill="white" fill-opacity="0"/>
		</clipPath>
		<linearGradient id="paint_linear_27_38_0" x1="-0.000008" y1="11.333279" x2="57.138893" y2="90.194397" gradientUnits="userSpaceOnUse">
			<stop stop-color="#6CBCFC"/>
			<stop offset="1.000000" stop-color="#458DFC"/>
		</linearGradient>
		<linearGradient id="paint_linear_27_40_0" x1="-629.929993" y1="-39.930725" x2="-27.604015" y2="2.022095" gradientUnits="userSpaceOnUse">
			<stop stop-color="#B0F4FF"/>
			<stop offset="0.052549" stop-color="#A9F2FF"/>
			<stop offset="0.287900" stop-color="#8DE8FE"/>
			<stop offset="0.524700" stop-color="#79E1FD"/>
			<stop offset="0.761800" stop-color="#6DDDFC"/>
			<stop offset="1.000000" stop-color="#69DCFC"/>
		</linearGradient>
		<linearGradient id="paint_linear_27_41_0" x1="6.139957" y1="6.113132" x2="56.125771" y2="6.113132" gradientUnits="userSpaceOnUse">
			<stop stop-color="#B0F4FF"/>
			<stop offset="0.052549" stop-color="#A9F2FF"/>
			<stop offset="0.287900" stop-color="#8DE8FE"/>
			<stop offset="0.524700" stop-color="#79E1FD"/>
			<stop offset="0.761800" stop-color="#6DDDFC"/>
			<stop offset="1.000000" stop-color="#69DCFC"/>
		</linearGradient>
		<linearGradient id="paint_linear_27_44_0" x1="21.977917" y1="43.095329" x2="12.597474" y2="53.912434" gradientUnits="userSpaceOnUse">
			<stop stop-color="#6CBCFC"/>
			<stop offset="1.000000" stop-color="#458DFC"/>
		</linearGradient>
		<linearGradient id="paint_linear_27_45_0" x1="52.384743" y1="45.671005" x2="28.886654" y2="45.671005" gradientUnits="userSpaceOnUse">
			<stop stop-color="#6CBCFC"/>
			<stop offset="1.000000" stop-color="#458DFC"/>
		</linearGradient>
		<linearGradient id="paint_linear_27_46_0" x1="30.551876" y1="51.532131" x2="52.179001" y2="51.532131" gradientUnits="userSpaceOnUse">
			<stop stop-color="#6CBCFC"/>
			<stop offset="1.000000" stop-color="#458DFC"/>
		</linearGradient>
	</defs>
	<rect width="61.857380" height="85.000000" fill="#FFFFFF" fill-opacity="0"/>
	<g clip-path="url(#clip27_36)">
		<path d="M61.8574 26.4806L61.6657 66.2814L61.6338 73.9796C61.6018 80.0967 55.7882 85.0319 48.633 84.9999L12.889 84.8402C5.74973 84.7923 -0.0319328 79.8092 9.53674e-06 73.6762L0.22361 26.1771C0.239582 21.226 4.07272 17.0414 9.31135 15.652L9.32733 13.0965L9.32733 11.7869L52.8814 11.9945L52.8654 15.8596C58.0881 17.313 61.8733 21.5135 61.8574 26.4806Z" fill="url(#paint_linear_27_38_0)" fill-opacity="1.000000" fill-rule="nonzero"/>
		<path d="M56.1237 1.77283L56.1237 2.12421L56.0917 6.27679L56.0598 10.3495L56.0598 10.8446C56.0598 11.6113 55.4209 12.2341 54.6543 12.2341L54.3189 12.2341L52.2107 12.2181L49.8948 12.2022L47.7866 12.1862L45.4707 12.1702L43.3305 12.1383L41.0147 12.1223L38.9065 12.1063L36.5746 12.0904L34.4504 12.0744L32.1346 12.0584L30.0263 12.0265L27.7105 12.0105L25.6022 11.9946L23.2704 11.9786L21.1462 11.9626L18.8463 11.9467L16.7381 11.9307L14.4222 11.9147L12.298 11.8987L9.98217 11.8828L7.85797 11.8668L7.52257 11.8668C6.75594 11.8668 6.13306 11.2279 6.13306 10.4613L6.13306 10.4453L6.13306 10.0939L6.19694 1.88464L6.19694 1.38953C6.19694 0.622864 6.8358 0 7.6184 0L7.9538 0L12.3939 0.0319214L16.8339 0.0639038L18.9581 0.079834L21.274 0.0958252L23.3822 0.111816L27.8063 0.159729L30.1222 0.175659L32.2304 0.19165L34.5462 0.207642L36.6545 0.223572L38.9703 0.239563L41.0786 0.255554L43.3944 0.271484L45.5027 0.287476L47.8505 0.319458L49.9587 0.335388L52.2745 0.351379L54.3987 0.367371L54.7341 0.367371C55.5168 0.383301 56.1237 1.00623 56.1237 1.77283Z" fill="url(#paint_linear_27_40_0)" fill-opacity="1.000000" fill-rule="nonzero"/>
		<path d="M56.1237 2.1402L56.0917 6.27679L56.0598 10.3495L54.1592 10.3336L51.6357 10.3176L49.3198 10.3016L46.7804 10.3016L44.4645 10.2856L41.941 10.2697L39.6252 10.2537L37.0857 10.2537L34.7698 10.2377L32.2304 10.2217L29.9305 10.2057L27.391 10.2057L25.0752 10.1898L22.5357 10.1738L20.2199 10.1578L17.6964 10.1578L15.3805 10.1419L12.8411 10.1259L10.5252 10.1099L8.00171 10.1099L6.13306 10.094L6.19694 1.88464L10.637 1.90063L15.4763 1.93256L17.7922 1.94855L20.3317 1.96448L22.6475 1.96448L27.4869 1.99646L30.0263 2.01239L32.3422 2.01239L34.8816 2.02838L37.1815 2.04437L39.721 2.0603L42.0369 2.0603L44.5763 2.07629L46.8762 2.09229L49.4157 2.10822L51.7315 2.10822L54.271 2.12421L56.1237 2.1402Z" fill="url(#paint_linear_27_41_0)" fill-opacity="1.000000" fill-rule="nonzero"/>
		<path d="M0.176758 34.5927L61.8105 34.8842L61.6813 62.2112L0.0475235 61.9198L0.176758 34.5927Z" fill="#F7F9FC" fill-opacity="1.000000" fill-rule="evenodd"/>
		<path d="M0.187622 34.5927L61.8214 34.884L61.7982 39.8032L0.164366 39.5118L0.187622 34.5927Z" fill="#FBFCF7" fill-opacity="1.000000" fill-rule="evenodd"/>
		<path d="M24.2127 45.5803L20.2358 45.5644L20.2518 41.5715L14.7736 41.5555L14.7576 45.5324L10.7807 45.5165L10.7488 50.9787L14.7257 50.9946L14.7097 54.9875L20.1879 55.0035L20.2039 51.0266L24.1808 51.0426L24.2127 45.5803Z" fill="url(#paint_linear_27_44_0)" fill-opacity="1.000000" fill-rule="nonzero"/>
		<path d="M51.2364 46.906L31.5276 46.8102C31.0006 46.8102 30.5693 46.379 30.5693 45.8519L30.5693 45.4047C30.5693 44.8776 31.0006 44.4464 31.5276 44.4464L51.2364 44.5422C51.7634 44.5422 52.1947 44.9734 52.1947 45.5005L52.1947 45.9478C52.1947 46.4748 51.7634 46.906 51.2364 46.906Z" fill="url(#paint_linear_27_45_0)" fill-opacity="1.000000" fill-rule="nonzero"/>
		<g opacity="0.500000">
			<path d="M51.2204 52.7675L31.5116 52.6716C30.9846 52.6716 30.5533 52.2404 30.5533 51.7133L30.5533 51.2662C30.5533 50.7391 30.9846 50.3079 31.5116 50.3079L51.2204 50.4037C51.7474 50.4037 52.1787 50.8349 52.1787 51.362L52.1787 51.8092C52.1787 52.3362 51.7474 52.7675 51.2204 52.7675Z" fill="url(#paint_linear_27_46_0)" fill-opacity="1.000000" fill-rule="nonzero"/>
		</g>
		<g opacity="0.080000">
			<path d="M6.13306 1.77277L6.13306 2.12415L6.165 6.27673L6.19694 10.3335L6.19694 10.8286C6.19694 11.5952 6.8358 12.2181 7.60243 12.2181L7.93783 12.2181L10.062 12.2021L12.3779 12.1862L14.4861 12.1702L16.802 12.1542L18.9102 12.1382L21.2261 12.1223L23.3343 12.1063L25.6502 12.0903L27.7744 12.0744L30.0902 12.0584L32.1984 12.0424L34.5143 12.0265L36.6225 12.0105L38.9384 11.9945L41.0626 11.9785L43.3785 11.9626L45.4867 11.9466L47.8025 11.9306L49.9108 11.9147L52.2266 11.8987L54.3508 11.8827L54.6862 11.8827C55.4529 11.8827 56.0757 11.2438 56.0757 10.4772L56.0757 10.4612L56.0757 10.1099C31.3679 11.18 7.52257 0.36731 7.52257 0.36731C6.75594 0.383301 6.13306 1.00616 6.13306 1.77277Z" fill="#1A6FB5" fill-opacity="1.000000" fill-rule="nonzero"/>
		</g>
	</g>
</svg>
