<svg width="160.000000" height="41.000000" viewBox="0 0 160 41" fill="none" xmlns="http://www.w3.org/2000/svg" xmlns:xlink="http://www.w3.org/1999/xlink">
	<desc>
			Created with Pixso.
	</desc>
	<defs/>
	<path id="Trafalgar" d="M96.9341 15.9102L99.5357 15.9102L99.5357 18.6348L96.9341 18.6348L96.9341 29L93.3013 29L93.3013 18.6348L91.4556 18.6348L91.4556 15.9102L93.3013 15.9102L93.3013 14.9609C93.3013 12.1191 95.1353 10.7246 97.6021 10.7246C98.7154 10.7246 99.7115 10.9473 100.163 11.0879L99.524 13.8125C99.2369 13.7188 98.7915 13.625 98.358 13.625C97.2915 13.625 96.9341 14.1465 96.9341 15.0312L96.9341 15.9102ZM59.1934 14.5859L53.8496 14.5859L53.8496 11.5449L68.1875 11.5449L68.1875 14.5859L62.8438 14.5859L62.8438 29L59.1934 29L59.1934 14.5859ZM115.197 11.5449L118.83 11.5449L118.83 29L115.197 29L115.197 11.5449ZM72.7562 29L69.1234 29L69.1234 15.9102L72.6449 15.9102L72.6449 18.1953L72.7796 18.1953C73.2601 16.5723 74.4613 15.7227 75.9261 15.7227C76.2953 15.7227 76.7464 15.7754 77.0687 15.8516L77.0687 19.0684C76.7289 18.9629 76.0375 18.875 75.5336 18.875C73.9339 18.875 72.7562 19.9824 72.7562 21.5938L72.7562 29ZM154.481 29L150.848 29L150.848 15.9102L154.369 15.9102L154.369 18.1953L154.504 18.1953C154.985 16.5723 156.186 15.7227 157.651 15.7227C158.02 15.7227 158.471 15.7754 158.793 15.8516L158.793 19.0684C158.453 18.9629 157.762 18.875 157.258 18.875C155.658 18.875 154.481 19.9824 154.481 21.5938L154.481 29ZM86.1252 27.1836C85.4865 28.4023 84.2385 29.2461 82.299 29.2461C79.8029 29.2461 77.9572 27.9336 77.9572 25.3438C77.9572 22.4199 80.2834 21.5527 82.8732 21.3125C85.1467 21.0898 86.0432 20.9785 86.0432 20.1348L86.0432 20.0879C86.0432 19.0098 85.3342 18.3887 84.0978 18.3887C82.7971 18.3887 82.0178 19.0273 81.7717 19.9004L78.4142 19.625C78.9182 17.2402 80.9807 15.7402 84.1154 15.7402C87.0334 15.7402 89.676 17.0527 89.676 20.1699L89.676 29L86.2307 29L86.2307 27.1836L86.1252 27.1836ZM108.83 27.1836C108.191 28.4023 106.943 29.2461 105.004 29.2461C102.507 29.2461 100.662 27.9336 100.662 25.3438C100.662 22.4199 102.988 21.5527 105.578 21.3125C107.851 21.0898 108.748 20.9785 108.748 20.1348L108.748 20.0879C108.748 19.0098 108.039 18.3887 106.802 18.3887C105.502 18.3887 104.722 19.0273 104.476 19.9004L101.119 19.625C101.623 17.2402 103.685 15.7402 106.82 15.7402C109.738 15.7402 112.381 17.0527 112.381 20.1699L112.381 29L108.935 29L108.935 27.1836L108.83 27.1836ZM134.025 29.1289C134.025 32.4746 131.364 34.1797 127.626 34.1797C124.099 34.1797 122.077 32.5977 121.644 30.5352L125.001 30.084C125.3 30.875 126.108 31.5723 127.708 31.5723C129.284 31.5723 130.439 30.875 130.439 29.0762L130.439 26.6797L130.286 26.6797C129.806 27.7637 128.64 28.8125 126.554 28.8125C123.601 28.8125 121.239 26.7852 121.239 22.4316C121.239 17.9727 123.671 15.7402 126.542 15.7402C128.733 15.7402 129.8 17.041 130.286 18.1074L130.421 18.1074L130.421 15.9102L134.025 15.9102L134.025 29.1289ZM144.48 27.1836C143.842 28.4023 142.594 29.2461 140.654 29.2461C138.158 29.2461 136.312 27.9336 136.312 25.3438C136.312 22.4199 138.638 21.5527 141.228 21.3125C143.502 21.0898 144.398 20.9785 144.398 20.1348L144.398 20.0879C144.398 19.0098 143.689 18.3887 142.453 18.3887C141.152 18.3887 140.373 19.0273 140.127 19.9004L136.769 19.625C137.273 17.2402 139.336 15.7402 142.471 15.7402C145.388 15.7402 148.031 17.0527 148.031 20.1699L148.031 29L144.586 29L144.586 27.1836L144.48 27.1836ZM124.948 22.4141C124.948 24.6699 125.921 26.0879 127.702 26.0879C129.448 26.0879 130.456 24.7227 130.456 22.4141C130.456 20.1172 129.466 18.6289 127.702 18.6289C125.903 18.6289 124.948 20.1875 124.948 22.4141ZM81.426 25.2266C81.426 26.2227 82.2228 26.7441 83.342 26.7441C84.9357 26.7441 86.0666 25.6953 86.0666 24.3184L86.0666 22.9297C85.633 23.2227 84.3381 23.4102 83.5471 23.5215C82.2697 23.6973 81.426 24.2012 81.426 25.2266ZM104.131 25.2266C104.131 26.2227 104.927 26.7441 106.047 26.7441C107.64 26.7441 108.771 25.6953 108.771 24.3184L108.771 22.9297C108.338 23.2227 107.043 23.4102 106.252 23.5215C104.974 23.6973 104.131 24.2012 104.131 25.2266ZM139.781 25.2266C139.781 26.2227 140.578 26.7441 141.697 26.7441C143.291 26.7441 144.422 25.6953 144.422 24.3184L144.422 22.9297C143.988 23.2227 142.693 23.4102 141.902 23.5215C140.625 23.6973 139.781 24.2012 139.781 25.2266Z" fill="#233348" fill-opacity="1.000000" fill-rule="evenodd"/>
	<circle id="Ellipse 7" cx="20.500000" cy="20.500000" r="20.500000" fill="#458FF6" fill-opacity="1.000000"/>
	<path id="T" d="M19.7095 14.3848L13.9204 14.3848L13.9204 11.0903L29.4531 11.0903L29.4531 14.3848L23.6641 14.3848L23.6641 30L19.7095 30L19.7095 14.3848Z" fill="#FFFFFF" fill-opacity="1.000000" fill-rule="evenodd"/>
</svg>
